<?xml version="1.0"?>
<svg xmlns="http://www.w3.org/2000/svg" xmlns:xlink="http://www.w3.org/1999/xlink" xmlns:svgjs="http://svgjs.com/svgjs" version="1.1" width="512" height="512" x="0" y="0" viewBox="0 0 512 512" style="enable-background:new 0 0 512 512" xml:space="preserve"><g><path xmlns="http://www.w3.org/2000/svg" d="M288,240a8,8,0,0,0-8,8,24,24,0,0,1-48,0,8,8,0,0,0-16,0,40,40,0,0,0,80,0A8,8,0,0,0,288,240Z" fill="#6cdbeb" data-original="#000000" style=""/><path xmlns="http://www.w3.org/2000/svg" d="M256,16C123.055,16,16,173.555,16,304c0,120.223,89.719,192,240,192s240-71.777,240-192C496,173.555,388.945,16,256,16Zm0,16c73.358,0,138.265,52.017,179.078,120H400a8,8,0,0,0-8-8H280a8,8,0,0,0-8,8H240a8,8,0,0,0-8-8H120a8,8,0,0,0-8,8H76.922C117.735,84.017,182.642,32,256,32Zm32,136v-8h29.394l-11.757,41.149A39.991,39.991,0,0,1,288,168Zm46.035-8h15.719l-12,48H328a40.056,40.056,0,0,1-7.477-.711Zm32.211,0H384v8a40.064,40.064,0,0,1-29.395,38.562Zm-220.492,0,11.64,46.562A40.065,40.065,0,0,1,128,168v-8Zm28.492,48-12-48h15.719l13.512,47.289A40.056,40.056,0,0,1,184,208Zm32.117-6.851L194.606,160H224v8A39.989,39.989,0,0,1,206.363,201.149ZM256,480C115.742,480,32,414.207,32,304c0-44.743,13.189-92.858,35.919-136H112a56.063,56.063,0,0,0,55.869,56c.042,0,.083,0,.125,0l.032,0H184a56.064,56.064,0,0,0,56-56h32a56.063,56.063,0,0,0,56,56h16a56.063,56.063,0,0,0,56-56h44.081C466.811,211.142,480,259.257,480,304,480,414.207,396.258,480,256,480Z" fill="#6cdbeb" data-original="#000000" style=""/></g></svg>
