<?xml version="1.0"?>
<svg xmlns="http://www.w3.org/2000/svg" xmlns:xlink="http://www.w3.org/1999/xlink" xmlns:svgjs="http://svgjs.com/svgjs" version="1.1" width="512" height="512" x="0" y="0" viewBox="0 0 74 74" style="enable-background:new 0 0 512 512" xml:space="preserve" class=""><g><path xmlns="http://www.w3.org/2000/svg" d="M41.041,33.959a1,1,0,0,1-.707-1.707L68.586,4H43.538a5.527,5.527,0,0,0-4.416,2.212,1.025,1.025,0,0,1-.09.105A5.4,5.4,0,0,0,38,9.539V31.272a1,1,0,0,1-2,0V9.539a7.429,7.429,0,0,1,1.48-4.482.956.956,0,0,1,.089-.1A7.492,7.492,0,0,1,43.538,2H71a1,1,0,0,1,.707,1.707L41.748,33.667A1,1,0,0,1,41.041,33.959Z" fill="#6cdbeb" data-original="#000000" style="" class=""/><path xmlns="http://www.w3.org/2000/svg" d="M31.285,38H9.538a7.431,7.431,0,0,1-4.482-1.48,1.041,1.041,0,0,1-.108-.094A7.48,7.48,0,0,1,2,30.461V3a1,1,0,0,1,1.707-.707L33.666,32.252a1,1,0,0,1-1.414,1.414L4,5.414V30.461a5.525,5.525,0,0,0,2.212,4.416.93.93,0,0,1,.11.1A5.406,5.406,0,0,0,9.538,36H31.285a1,1,0,0,1,0,2Z" fill="#6cdbeb" data-original="#000000" style="" class=""/><path xmlns="http://www.w3.org/2000/svg" d="M30.462,72H3a1,1,0,0,1-.707-1.707l29.915-29.9a1,1,0,0,1,1.751.65,1.031,1.031,0,0,1-.293.721L5.414,70H30.462a5.527,5.527,0,0,0,4.416-2.212,1.025,1.025,0,0,1,.09-.105A5.4,5.4,0,0,0,36,64.461V42.728a1,1,0,0,1,2,0V64.461a7.429,7.429,0,0,1-1.48,4.482.956.956,0,0,1-.089.1A7.492,7.492,0,0,1,30.462,72Z" fill="#6cdbeb" data-original="#000000" style="" class=""/><path xmlns="http://www.w3.org/2000/svg" d="M71,72a1,1,0,0,1-.707-.293L40.334,41.761a1,1,0,1,1,1.5-1.333L70,68.586V43.539a5.525,5.525,0,0,0-2.212-4.416.93.93,0,0,1-.11-.1A5.406,5.406,0,0,0,64.462,38H42.715a1,1,0,0,1,0-2H64.462a7.431,7.431,0,0,1,4.482,1.48,1.041,1.041,0,0,1,.108.094A7.48,7.48,0,0,1,72,43.539V71a1,1,0,0,1-1,1Z" fill="#6cdbeb" data-original="#000000" style="" class=""/><path xmlns="http://www.w3.org/2000/svg" d="M21.966,22.966a1,1,0,0,1-.707-1.707L37.609,4.908a1,1,0,0,1,1.414,1.414L22.673,22.673A1,1,0,0,1,21.966,22.966Z" fill="#6cdbeb" data-original="#000000" style="" class=""/><path xmlns="http://www.w3.org/2000/svg" d="M21.966,53.034a1,1,0,0,1-.707-.293L4.908,36.391a1,1,0,0,1,1.414-1.414L22.673,51.327a1,1,0,0,1-.707,1.707Z" fill="#6cdbeb" data-original="#000000" style="" class=""/><path xmlns="http://www.w3.org/2000/svg" d="M35.684,69.385a1,1,0,0,1-.707-1.707L51.327,51.327a1,1,0,0,1,1.414,1.414L36.391,69.092A1,1,0,0,1,35.684,69.385Z" fill="#6cdbeb" data-original="#000000" style="" class=""/><path xmlns="http://www.w3.org/2000/svg" d="M68.385,39.316a1,1,0,0,1-.707-.293L51.327,22.673a1,1,0,0,1,1.414-1.414L69.092,37.609a1,1,0,0,1-.707,1.707Z" fill="#6cdbeb" data-original="#000000" style="" class=""/><path xmlns="http://www.w3.org/2000/svg" d="M37,43.721A6.721,6.721,0,1,1,43.721,37,6.728,6.728,0,0,1,37,43.721Zm0-11.442A4.721,4.721,0,1,0,41.721,37,4.727,4.727,0,0,0,37,32.279Z" fill="#6cdbeb" data-original="#000000" style="" class=""/></g></svg>
