<?xml version="1.0"?>
<svg xmlns="http://www.w3.org/2000/svg" xmlns:xlink="http://www.w3.org/1999/xlink" xmlns:svgjs="http://svgjs.com/svgjs" version="1.1" width="512" height="512" x="0" y="0" viewBox="0 0 573 573.33081" style="enable-background:new 0 0 512 512" xml:space="preserve" class=""><g><path xmlns="http://www.w3.org/2000/svg" d="m187.023438 494.839844c-103.496094 0-187.699219-84.199219-187.699219-187.695313 0-103.496093 84.203125-187.699219 187.699219-187.699219 48.929687 0 95.246093 18.71875 130.417968 52.707032 3.386719 3.273437 3.480469 8.679687.207032 12.0625-3.277344 3.386718-8.683594 3.480468-12.066407.207031-31.972656-30.894531-74.078125-47.914063-118.558593-47.914063-94.082032 0-170.636719 76.546876-170.636719 170.636719 0 94.085938 76.554687 170.632813 170.636719 170.632813 72.210937 0 136.875-45.714844 160.925781-113.75 1.566406-4.449219 6.441406-6.785156 10.882812-5.203125 4.449219 1.574219 6.777344 6.445312 5.207031 10.886719-26.457031 74.84375-97.589843 125.128906-177.015624 125.128906zm0 0" fill="#6cdbeb" data-original="#000000" style=""/><path xmlns="http://www.w3.org/2000/svg" d="m187.023438 341.269531c-20.429688 0-39.171876-7.199219-50.136719-19.269531-3.164063-3.488281-2.902344-8.882812.582031-12.054688 3.496094-3.160156 8.890625-2.902343 12.046875.578126 7.671875 8.441406 22.042969 13.683593 37.507813 13.683593 15.296874 0 29.582031-5.160156 37.300781-13.460937 3.207031-3.449219 8.609375-3.644532 12.050781-.4375 3.457031 3.207031 3.652344 8.605468.445312 12.054687-11 11.84375-29.613281 18.90625-49.796874 18.90625zm0 0" fill="#6cdbeb" data-original="#000000" style=""/><path xmlns="http://www.w3.org/2000/svg" d="m127.304688 230.359375c0 9.421875-7.640626 17.058594-17.066407 17.058594-9.421875 0-17.0625-7.636719-17.0625-17.058594 0-9.425781 7.640625-17.0625 17.0625-17.0625 9.425781 0 17.066407 7.636719 17.066407 17.0625zm0 0" fill="#6cdbeb" data-original="#000000" style=""/><path xmlns="http://www.w3.org/2000/svg" d="m280.875 230.359375c0 9.421875-7.640625 17.058594-17.0625 17.058594-9.425781 0-17.066406-7.636719-17.066406-17.058594 0-9.425781 7.640625-17.0625 17.066406-17.0625 9.421875 0 17.0625 7.636719 17.0625 17.0625zm0 0" fill="#6cdbeb" data-original="#000000" style=""/><path xmlns="http://www.w3.org/2000/svg" d="m502.699219 307.144531h-187.699219c-4.710938 0-8.53125-3.820312-8.53125-8.53125v-263.273437c0-19.488282 15.851562-35.339844 35.335938-35.339844h134.085937c19.488281 0 35.339844 15.851562 35.339844 35.339844v263.273437c0 4.710938-3.820313 8.53125-8.53125 8.53125zm-179.167969-17.066406h170.640625v-254.738281c0-10.082032-8.203125-18.277344-18.28125-18.277344h-134.078125c-10.078125 0-18.28125 8.203125-18.28125 18.277344zm0 0" fill="#6cdbeb" data-original="#000000" style=""/><path xmlns="http://www.w3.org/2000/svg" d="m475.890625 375.398438h-134.078125c-19.492188 0-35.34375-15.855469-35.34375-35.339844v-41.445313c0-4.710937 3.824219-8.535156 8.535156-8.535156h187.699219c4.710937 0 8.527344 3.824219 8.527344 8.535156v41.445313c0 19.484375-15.851563 35.339844-35.339844 35.339844zm-152.359375-68.253907v32.914063c0 10.078125 8.203125 18.273437 18.273438 18.273437h134.085937c10.078125 0 18.273437-8.195312 18.273437-18.273437v-32.914063zm0 0" fill="#6cdbeb" data-original="#000000" style=""/><path xmlns="http://www.w3.org/2000/svg" d="m425.917969 332.734375c0 9.429687-7.640625 17.070313-17.070313 17.070313-9.421875 0-17.0625-7.640626-17.0625-17.070313 0-9.421875 7.640625-17.0625 17.0625-17.0625 9.429688 0 17.070313 7.640625 17.070313 17.0625zm0 0" fill="#6cdbeb" data-original="#000000" style=""/><path xmlns="http://www.w3.org/2000/svg" d="m344.863281 89.582031c-2.183593 0-4.367187-.832031-6.03125-2.5-3.332031-3.328125-3.332031-8.730469 0-12.0625l29.859375-29.863281c3.332032-3.328125 8.734375-3.328125 12.0625 0 3.335938 3.335938 3.335938 8.734375 0 12.066406l-29.859375 29.859375c-1.667969 1.667969-3.851562 2.5-6.03125 2.5zm0 0" fill="#6cdbeb" data-original="#000000" style=""/><path xmlns="http://www.w3.org/2000/svg" d="m408.847656 418.058594c-4.710937 0-8.527344-3.824219-8.527344-8.535156v-17.0625c0-4.710938 3.816407-8.535157 8.527344-8.535157 4.710938 0 8.535156 3.824219 8.535156 8.535157v17.0625c0 4.710937-3.824218 8.535156-8.535156 8.535156zm0 0" fill="#6cdbeb" data-original="#000000" style=""/><path xmlns="http://www.w3.org/2000/svg" d="m333.625 537.496094c-.03125 0-.066406 0-.105469 0h-20.691406c-4.710937 0-8.535156-3.816406-8.535156-8.527344s3.824219-8.535156 8.535156-8.535156h20.707031c2.558594-.066406 5.816406-.179688 8.695313-.554688 4.667969-.621094 8.949219 2.683594 9.558593 7.363282.605469 4.671874-2.691406 8.945312-7.363281 9.558593-3.570312.460938-7.203125.695313-10.800781.695313zm-51.328125 0h-30.53125c-4.710937 0-8.535156-3.816406-8.535156-8.527344s3.824219-8.535156 8.535156-8.535156h30.53125c4.710937 0 8.53125 3.824218 8.53125 8.535156s-3.820313 8.527344-8.53125 8.527344zm89.6875-10.535156c-2.90625 0-5.746094-1.488282-7.335937-4.171876-2.40625-4.050781-1.078126-9.289062 2.972656-11.691406 7.816406-4.648437 14.515625-10.738281 19.890625-18.101562 2.78125-3.804688 8.121093-4.640625 11.921875-1.863282 3.800781 2.785157 4.636718 8.125 1.859375 11.929688-6.746094 9.234375-15.144531 16.875-24.953125 22.703125-1.371094.8125-2.871094 1.195313-4.355469 1.195313zm35-47.988282c-.625 0-1.265625-.0625-1.894531-.210937-4.59375-1.042969-7.472656-5.613281-6.433594-10.207031 1.101562-4.867188 1.660156-9.878907 1.660156-14.902344v-13.597656c0-4.710938 3.820313-8.527344 8.53125-8.527344 4.710938 0 8.535156 3.816406 8.535156 8.527344v13.597656c0 6.292968-.703124 12.574218-2.089843 18.675781-.894531 3.964844-4.414063 6.644531-8.308594 6.644531zm0 0" fill="#6cdbeb" data-original="#000000" style=""/><path xmlns="http://www.w3.org/2000/svg" d="m221.15625 537.496094h-17.070312c-4.710938 0-8.527344-3.816406-8.527344-8.527344s3.816406-8.535156 8.527344-8.535156h17.070312c4.710938 0 8.527344 3.824218 8.527344 8.535156s-3.816406 8.527344-8.527344 8.527344zm0 0" fill="#6cdbeb" data-original="#000000" style=""/></g></svg>
