<?xml version="1.0"?>
<svg xmlns="http://www.w3.org/2000/svg" xmlns:xlink="http://www.w3.org/1999/xlink" xmlns:svgjs="http://svgjs.com/svgjs" version="1.1" width="512" height="512" x="0" y="0" viewBox="0 0 60 59" style="enable-background:new 0 0 512 512" xml:space="preserve" class=""><g><g xmlns="http://www.w3.org/2000/svg" id="Page-1" fill="none" fill-rule="evenodd"><g id="028---Swimming" fill="rgb(0,0,0)" fill-rule="nonzero"><path id="Shape" d="m59 52c-3.2015181.0819455-6.3787193-.5764922-9.284-1.924-3.1482539-1.4481269-6.5856356-2.158177-10.05-2.076-3.4643644-.082177-6.9017461.6278731-10.05 2.076-2.9052807 1.3475078-6.0824819 2.0059455-9.284 1.924-3.2011822.0817909-6.3780238-.5766432-9.283-1.924-3.14789357-1.448146-6.58495556-2.1582008-10.049-2.076-.55228475 0-1 .4477153-1 1s.44771525 1 1 1c3.20118222-.0817909 6.37802377.5766432 9.283 1.924 3.1478936 1.448146 6.5849556 2.1582008 10.049 2.076 3.4643644.082177 6.9017461-.6278731 10.05-2.076 2.9052807-1.3475078 6.0824819-2.0059455 9.284-1.924 3.2015181-.0819455 6.3787193.5764922 9.284 1.924 3.1482539 1.4481269 6.5856356 2.158177 10.05 2.076.5522847 0 1-.4477153 1-1s-.4477153-1-1-1z" fill="#6cdbeb" data-original="#000000" style=""/><path id="Shape" d="m30.382 56.924c2.9052807-1.3475078 6.0824819-2.0059455 9.284-1.924 3.2015181-.0819455 6.3787193.5764922 9.284 1.924 3.1482539 1.4481269 6.5856356 2.158177 10.05 2.076.5522847 0 1-.4477153 1-1s-.4477153-1-1-1c-3.2015181.0819455-6.3787193-.5764922-9.284-1.924-3.1482539-1.4481269-6.5856356-2.158177-10.05-2.076-3.4643644-.082177-6.9017461.6278731-10.05 2.076-2.9052807 1.3475078-6.0824819 2.0059455-9.284 1.924-3.2011822.0817909-6.3780238-.5766432-9.283-1.924-3.14789357-1.448146-6.58495556-2.1582008-10.049-2.076-.55228475 0-1 .4477153-1 1s.44771525 1 1 1c3.20118222-.0817909 6.37802377.5766432 9.283 1.924 3.1478936 1.448146 6.5849556 2.1582008 10.049 2.076 3.4643644.082177 6.9017461-.6278731 10.05-2.076z" fill="#6cdbeb" data-original="#000000" style=""/><path id="Shape" d="m26.038 32.88c.4227989.1066884.8083722.3269666 1.115.637.9507491.9515429.9507491 2.4934571 0 3.445l-9.886 9.877c-2.1515429-.261698-4.2492861-.8564746-6.218-1.763-3.14789357-1.448146-6.58495556-2.1582008-10.049-2.076-.55228475 0-1 .4477153-1 1s.44771525 1 1 1c3.20118222-.0817909 6.37802377.5766432 9.283 1.924 3.1478936 1.448146 6.5849556 2.1582008 10.049 2.076 3.4643644.082177 6.9017461-.6278731 10.05-2.076 2.9052807-1.3475078 6.0824819-2.0059455 9.284-1.924 3.2015181-.0819455 6.3787193.5764922 9.284 1.924 3.1482539 1.4481269 6.5856356 2.158177 10.05 2.076.5522847 0 1-.4477153 1-1s-.4477153-1-1-1c-3.1345245.0830887-6.2467317-.5496127-9.1-1.85l-3.79-6.41c2.7109587-.6590036 4.9647359-2.5347516 6.105-5.081.008-.015.021-.026.029-.042s.005-.029.011-.042c1.9111307-4.389569.048208-9.5068711-4.2376414-11.6404671s-9.4919055-.535397-11.8423586 3.6354671l-.01.013v.007c-.5485233.9728792-.9097647 2.039983-1.065 3.146l-1.08-1.081c-1.7641664-1.7650802-3.9677807-3.0269022-6.383-3.655l-10.979-2.846c-1.1521333-.3074737-2.3792441-.1442254-3.4109184.4537706-1.0316744.597996-1.7832416 1.5816613-2.0890816 2.7342294-.3066583 1.1545205-.1416895 2.3835958.4585543 3.4163902.6002437 1.0327944 1.586502 1.7845492 2.7414457 2.0896098zm17.962 4.12c-2.3285855.0030616-4.5058435-1.1534839-5.8069877-3.0846348-1.3011443-1.9311508-1.5553565-4.3833796-.6780123-6.5403652l12.472 6.232c-1.2635903 2.1016002-3.5347835 3.3887487-5.987 3.393zm0-14c2.1695527-.008447 4.2194254.9934342 5.5456516 2.7104532 1.3262262 1.7170191 1.7776806 3.9535192 1.2213484 6.0505468l-12.238-6.115c1.3242184-1.6708084 3.3390632-2.6452699 5.471-2.646zm-29.142 4.914c-.8958235-.2002139-1.60988-.8752532-1.8600627-1.7584259-.2501826-.8831726.0037503-1.8324213.6614757-2.4727201.6577255-.6402987 1.6134491-.8686563 2.489587-.594854l10.986 2.851c2.0692749.5375197 3.9573735 1.61811 5.469 3.13l2.549 2.548c.7795901 4.2493001 4.4659288 7.3469827 8.786 7.383l2.961 5.01c-2.3418784-.7210265-4.7841903-1.0620183-7.234-1.01-3.4643644-.082177-6.9017461.6278731-10.05 2.076-2.9052807 1.3475078-6.0824819 2.0059455-9.284 1.924-.137 0-.253-.008-.386-.01l8.621-8.613c1.7322215-1.7381621 1.7277447-4.5513598-.01-6.284-.5588671-.5597601-1.2590349-.9575356-2.026-1.151z" fill="#6cdbeb" data-original="#000000" style=""/><path id="Shape" d="m4.5 23c-1.93299662 0-3.5 1.5670034-3.5 3.5s1.56700338 3.5 3.5 3.5 3.5-1.5670034 3.5-3.5-1.56700338-3.5-3.5-3.5zm0 2c.82842712 0 1.5.6715729 1.5 1.5s-.67157288 1.5-1.5 1.5-1.5-.6715729-1.5-1.5.67157288-1.5 1.5-1.5z" fill="#6cdbeb" data-original="#000000" style=""/><circle id="Oval" cx="3" cy="39" r="1" fill="#6cdbeb" data-original="#000000" style=""/><circle id="Oval" cx="6" cy="35" r="1" fill="#6cdbeb" data-original="#000000" style=""/><path id="Shape" d="m34.949 2.05c-2.7338095-2.73380951-7.1661905-2.73380951-9.9 0s-2.7338095 7.16619049 0 9.9c2.7338095 2.7338095 7.1661905 2.7338095 9.9 0 2.7338095-2.73380951 2.7338095-7.16619049 0-9.9zm-1.414 8.486c-1.6869213 1.686412-4.3301804 1.9463931-6.313336.6209563-1.9831556-1.32543681-2.7539029-3.86716015-1.8409042-6.07082124s3.2554752-3.45554482 5.5949268-2.99008245c2.3394515.46546236 4.0243457 2.51864052 4.0243134 4.90394739.0036368 1.32704515-.5239118 2.60036384-1.465 3.536z" fill="#6cdbeb" data-original="#000000" style=""/><path id="Shape" d="m31.293 38.293c-.3903819.3904999-.3903819 1.0235001 0 1.414l1 1c.3923789.3789722 1.0160848.3735524 1.4018186-.0121814s.3911536-1.0094397.0121814-1.4018186l-1-1c-.3904999-.3903819-1.0235001-.3903819-1.414 0z" fill="#6cdbeb" data-original="#000000" style=""/><path id="Shape" d="m33.444 15.315c-.5098572.2114267-.7519975.7959651-.541 1.306l.765 1.848c.2112489.5103111.7961889.7527489 1.3065.5415s.7527489-.7961889.5415-1.3065l-.765-1.848c-.1015282-.2451011-.2962909-.4398132-.5414184-.5412776s-.5205277-.1013645-.7655816.0002776z" fill="#6cdbeb" data-original="#000000" style=""/><path id="Shape" d="m17.989 11.975c.1015282.2451011.2962909.4398132.5414184.5412776s.5205277.1013645.7655816-.0002776l1.848-.766c.3376241-.1316192.5776264-.43559.6273323-.7945371.0497059-.358947-.0986631-.7166983-.3878157-.9351117-.2891527-.21841336-.6738391-.26330913-1.0055166-.1173512l-1.848.765c-.2451011.1015282-.4398132.2962909-.5412776.5414184s-.1013645.5205277.0002776.7655816z" fill="#6cdbeb" data-original="#000000" style=""/><path id="Shape" d="m39.239 4.174c.1314874-.00023718.2616372-.02640307.383-.077l1.848-.765c.3301134-.13754725.5617702-.44075956.6077075-.79541978s-.1008239-.70688703-.385-.924-.6625941-.26612747-.9927075-.12858022l-1.848.766c-.4409771.18249579-.6915396.65116989-.5983647 1.11923398s.5041169.80505618.9813647.80476602z" fill="#6cdbeb" data-original="#000000" style=""/><path id="Shape" d="m25.249 15.856-.765 1.844c-.1366541.3301134-.0868143.7080549.1307453.9914575.2175595.2834026.5697863.4292108.924.3825.3542136-.0467108.6566006-.2788441.7932547-.6089575l.765-1.848c.2112489-.5103111-.0311889-1.0952511-.5415-1.3065s-1.0952511.0311889-1.3065.5415z" fill="#6cdbeb" data-original="#000000" style=""/><path id="Shape" d="m18.53 3.332 1.848.765c.3316775.14595793.7163639.10106216 1.0055166-.11735124.2891526-.2184134.4375216-.57616465.3878157-.9351117s-.2897082-.66291783-.6273323-.79453706l-1.844-.766c-.5103111-.21152505-1.0954749.03068891-1.307.54100001-.211525.5103111.0306889 1.09547492.541 1.30699999z" fill="#6cdbeb" data-original="#000000" style=""/><path id="Shape" d="m38.856 11.75 1.848.766c.3301134.1368327.7081502.087158.9917075-.1303123.2835573-.2174702.4295561-.569697.383-.924-.0465561-.3543029-.2785941-.656855-.6087075-.7936877l-1.848-.768c-.3316775-.14595793-.7163639-.10106216-1.0055166.1173512-.2891526.2184134-.4375216.5761647-.3878157.9351117.0497059.3589471.2897082.6629179.6273323.7945371z" fill="#6cdbeb" data-original="#000000" style=""/></g></g></g></svg>
